<svg width="100" height="16" viewBox="0 0 203 16" fill="none" xmlns="http://www.w3.org/2000/svg">
<path d="M202.707 8.70711C203.098 8.31658 203.098 7.68342 202.707 7.29289L196.343 0.928932C195.953 0.538408 195.319 0.538408 194.929 0.928932C194.538 1.31946 194.538 1.95262 194.929 2.34315L200.586 8L194.929 13.6569C194.538 14.0474 194.538 14.6805 194.929 15.0711C195.319 15.4616 195.953 15.4616 196.343 15.0711L202.707 8.70711ZM0 9H0.990196L0.990196 7H0L0 9ZM2.97059 9H4.95098V7L2.97059 7V9ZM6.93137 9H8.91176V7L6.93137 7V9ZM10.8922 9H12.8726V7H10.8922V9ZM14.8529 9L16.8333 9V7H14.8529V9ZM18.8137 9H20.7941V7H18.8137V9ZM22.7745 9H24.7549V7H22.7745V9ZM26.7353 9L28.7157 9V7H26.7353V9ZM30.6961 9H32.6765V7H30.6961V9ZM34.6569 9H36.6373V7L34.6569 7V9ZM38.6176 9H40.598V7H38.6176V9ZM42.5784 9H44.5588V7H42.5784V9ZM46.5392 9H48.5196V7L46.5392 7V9ZM50.5 9H52.4804V7L50.5 7V9ZM54.4608 9H56.4412V7H54.4608V9ZM58.4216 9H60.402V7L58.4216 7V9ZM62.3824 9H64.3627V7L62.3824 7V9ZM66.3431 9H68.3235V7H66.3431V9ZM70.3039 9L72.2843 9V7H70.3039V9ZM74.2647 9H76.2451V7H74.2647V9ZM78.2255 9H80.2059V7H78.2255V9ZM82.1863 9L84.1667 9V7H82.1863V9ZM86.1471 9H88.1275V7H86.1471V9ZM90.1078 9H92.0882V7L90.1078 7V9ZM94.0686 9L96.049 9V7L94.0686 7V9ZM98.0294 9H100.01V7H98.0294V9ZM101.99 9H103.971V7L101.99 7V9ZM105.951 9H107.931V7L105.951 7V9ZM109.912 9H111.892V7H109.912V9ZM113.873 9H115.853V7L113.873 7V9ZM117.833 9H119.814V7L117.833 7V9ZM121.794 9H123.775V7H121.794V9ZM125.755 9L127.735 9V7H125.755V9ZM129.716 9H131.696V7H129.716V9ZM133.676 9H135.657V7H133.676V9ZM137.637 9L139.618 9V7H137.637V9ZM141.598 9H143.578V7H141.598V9ZM145.559 9H147.539V7L145.559 7V9ZM149.52 9H151.5V7L149.52 7V9ZM153.48 9H155.461V7H153.48V9ZM157.441 9H159.422V7L157.441 7V9ZM161.402 9H163.382V7L161.402 7V9ZM165.363 9H167.343V7H165.363V9ZM169.324 9L171.304 9V7H169.324V9ZM173.284 9H175.265V7L173.284 7V9ZM177.245 9H179.226V7H177.245V9ZM181.206 9L183.186 9V7H181.206V9ZM185.167 9H187.147V7H185.167V9ZM189.127 9H191.108V7H189.127V9ZM193.088 9H195.069V7H193.088V9ZM197.049 9H199.029V7H197.049V9ZM201.01 9H202V7H201.01V9Z" fill="#390CE5"/>
</svg>
